<?xml version="1.0" encoding="UTF-8" standalone="no"?>
<!-- Created with Inkscape (http://www.inkscape.org/) -->

<svg
   xmlns:dc="http://purl.org/dc/elements/1.1/"
   xmlns:cc="http://creativecommons.org/ns#"
   xmlns:rdf="http://www.w3.org/1999/02/22-rdf-syntax-ns#"
   xmlns:svg="http://www.w3.org/2000/svg"
   xmlns="http://www.w3.org/2000/svg"
   xmlns:sodipodi="http://sodipodi.sourceforge.net/DTD/sodipodi-0.dtd"
   xmlns:inkscape="http://www.inkscape.org/namespaces/inkscape"
   width="13.405556mm"
   height="22.930555mm"
   viewBox="0 0 47.500001 81.249999"
   id="svg4225"
   version="1.1"
   inkscape:version="0.91 r13725"
   sodipodi:docname="drawing.svg">
  <defs
     id="defs4227" />
  <sodipodi:namedview
     id="base"
     pagecolor="#ffffff"
     bordercolor="#666666"
     borderopacity="1.0"
     inkscape:pageopacity="0.0"
     inkscape:pageshadow="2"
     inkscape:zoom="10.760606"
     inkscape:cx="19.322634"
     inkscape:cy="46.298147"
     inkscape:document-units="px"
     inkscape:current-layer="layer1"
     showgrid="false"
     fit-margin-top="0"
     fit-margin-left="0"
     fit-margin-right="0"
     fit-margin-bottom="0"
     inkscape:window-width="1536"
     inkscape:window-height="811"
     inkscape:window-x="-8"
     inkscape:window-y="-8"
     inkscape:window-maximized="1" />
  <metadata
     id="metadata4230">
    <rdf:RDF>
      <cc:Work
         rdf:about="">
        <dc:format>image/svg+xml</dc:format>
        <dc:type
           rdf:resource="http://purl.org/dc/dcmitype/StillImage" />
        <dc:title></dc:title>
      </cc:Work>
    </rdf:RDF>
  </metadata>
  <g
     inkscape:label="Layer 1"
     inkscape:groupmode="layer"
     id="layer1"
     transform="translate(-184.62849,-208.55302)">
    <g
       id="g4784"
       transform="translate(65.521374,8.2444113)">
      <path
         style="fill:#fefefe"
         d="m 119.10712,240.93361 0,-40.625 23.75,0 23.75,0 0,40.625 0,40.625 -23.75,0 -23.75,0 0,-40.625 z"
         id="path4792"
         inkscape:connector-curvature="0" />
      <path
         style="fill:#8c9ca7"
         d="m 121.94968,278.99484 c -2.1974,-0.94609 -1.59256,-7.44705 -1.59256,-37.43623 0,-29.98918 -1.07601,-37.23094 1.31377,-37.3433 4.1932,-0.19715 37.60752,-0.25621 41.40126,0.37173 2.41267,0.39934 1.59256,7.16825 1.59256,37.15743 0,29.98918 0.78055,36.55985 -1.40671,37.52917 -3.17095,1.40526 -38.04443,1.12646 -41.30832,-0.2788 z m 21.70133,-5.31548 c 0.68346,-2.05266 -1.86401,-4.07552 -3.54389,-2.39564 -0.71888,0.71888 -0.98545,2.04265 -0.5,2.82812 1.10444,1.78702 3.34814,1.65712 4.04389,-0.43248 z m 15.45611,-32.12075 0,-25 -16.875,0 -16.875,0 0,25 0,25 16.875,0 16.875,0 z m -10,-31.25 c 0,-2.19697 -0.83333,-2.5 -6.875,-2.5 -6.04167,0 -6.875,0.30303 -6.875,2.5 0,2.19697 0.83333,2.5 6.875,2.5 6.04167,0 6.875,-0.30303 6.875,-2.5 z"
         id="path4788"
         inkscape:connector-curvature="0"
         sodipodi:nodetypes="ssssssssssscccccccccsssss" />
    </g>
  </g>
</svg>
