<?xml version="1.0" encoding="UTF-8" standalone="no"?>
<!-- Created with Inkscape (http://www.inkscape.org/) -->

<svg
   xmlns:dc="http://purl.org/dc/elements/1.1/"
   xmlns:cc="http://creativecommons.org/ns#"
   xmlns:rdf="http://www.w3.org/1999/02/22-rdf-syntax-ns#"
   xmlns:svg="http://www.w3.org/2000/svg"
   xmlns="http://www.w3.org/2000/svg"
   xmlns:sodipodi="http://sodipodi.sourceforge.net/DTD/sodipodi-0.dtd"
   xmlns:inkscape="http://www.inkscape.org/namespaces/inkscape"
   width="15.875001mm"
   height="22.225mm"
   viewBox="0 0 56.250003 78.750001"
   id="svg2"
   version="1.1"
   inkscape:version="0.91 r13725"
   sodipodi:docname="drawing.svg">
  <defs
     id="defs4" />
  <sodipodi:namedview
     id="base"
     pagecolor="#ffffff"
     bordercolor="#666666"
     borderopacity="1.0"
     inkscape:pageopacity="0.0"
     inkscape:pageshadow="2"
     inkscape:zoom="24.58"
     inkscape:cx="23.339635"
     inkscape:cy="71.199149"
     inkscape:document-units="px"
     inkscape:current-layer="g4167"
     showgrid="false"
     fit-margin-top="0"
     fit-margin-left="0"
     fit-margin-right="0"
     fit-margin-bottom="0"
     inkscape:window-width="1536"
     inkscape:window-height="811"
     inkscape:window-x="-8"
     inkscape:window-y="-8"
     inkscape:window-maximized="1" />
  <metadata
     id="metadata7">
    <rdf:RDF>
      <cc:Work
         rdf:about="">
        <dc:format>image/svg+xml</dc:format>
        <dc:type
           rdf:resource="http://purl.org/dc/dcmitype/StillImage" />
        <dc:title></dc:title>
      </cc:Work>
    </rdf:RDF>
  </metadata>
  <g
     inkscape:groupmode="layer"
     id="layer2"
     inkscape:label="la1"
     transform="translate(0,-973.6122)"
     style="display:inline">
    <g
       id="g4167"
       transform="translate(-54.732136,894.91073)"
       clip-path="none">
      <path
         style="fill:#fefefe"
         d="m 54.732136,118.07647 0,-39.375001 28.125,0 28.125004,0 0,39.375001 0,39.375 -28.125004,0 -28.125,0 0,-39.375 z"
         id="path4183"
         inkscape:connector-curvature="0" />
      <path
         style="fill:#81929d"
         d="m 62.515233,154.90164 c -1.563047,-0.62775 -3.337931,-2.42022 -3.944186,-3.98327 -0.955464,-2.46337 0.04742,-4.01128 7.529403,-11.6213 l 8.631686,-8.77939 0,-13.39128 0,-13.39129 -4.6875,-4.357996 -4.6875,-4.358001 18.125,0 18.125004,0 -4.687504,4.358001 -4.6875,4.357996 0,13.39129 0,13.39128 8.631684,8.77939 c 7.46772,7.59552 8.48361,9.16111 7.53356,11.61008 -0.60398,1.55688 -2.5561,3.385 -4.33806,4.0625 -4.04183,1.5367 -37.685632,1.48162 -41.544087,-0.068 z M 72.823229,87.978892 c -2.050931,-2.050932 -2.135785,-3.321388 0.54416,-4.725136 3.382069,-1.771518 5.274343,0.65698 3.321486,3.752902 -1.755645,2.783274 -2.026779,2.811102 -3.865646,0.972234 z m 20.154602,0.917865 c -0.432561,-0.699898 -0.177375,-1.648986 0.567079,-2.109085 1.921856,-1.187772 3.161835,0.439188 1.557477,2.043546 -0.897725,0.897725 -1.596907,0.919294 -2.124556,0.06554 z m -8.817314,-5.108915 c -0.853837,-1.381539 1.11801,-2.873315 2.272269,-1.719056 1.188481,1.188481 0.966984,2.882683 -0.376879,2.882683 -0.646926,0 -1.499851,-0.523632 -1.89539,-1.163627 z"
         id="path4171"
         inkscape:connector-curvature="0"
         sodipodi:nodetypes="csscccccccccccsssccssssssssssss" />
      <circle
         style="opacity:0.98999999;fill:#81929d;fill-opacity:1;stroke:none;stroke-width:1;stroke-miterlimit:1;stroke-dasharray:none;stroke-opacity:1"
         id="path4202"
         cx="74.951828"
         cy="85.889229"
         r="4.0683484" />
      <circle
         style="display:inline;opacity:0.98999999;fill:#81929d;fill-opacity:1;stroke:none;stroke-width:1;stroke-miterlimit:1;stroke-dasharray:none;stroke-opacity:1"
         id="path4202-1"
         cx="85.448166"
         cy="83.082069"
         r="2.7257936" />
      <circle
         style="display:inline;opacity:0.98999999;fill:#81929d;fill-opacity:1;stroke:none;stroke-width:1;stroke-miterlimit:1;stroke-dasharray:none;stroke-opacity:1"
         id="path4202-9"
         cx="94.134087"
         cy="87.781006"
         r="2.0545161" />
    </g>
  </g>
  <g
     inkscape:groupmode="layer"
     id="layer3"
     inkscape:label="Layer 3">
    <path
       style="opacity:0.98999999;fill:none;fill-opacity:1;stroke:none;stroke-width:1;stroke-miterlimit:1;stroke-dasharray:none;stroke-opacity:1"
       d="m 10.669836,16.221877 c 0,-0.0266 0.04829,-0.08634 0.107321,-0.132776 0.589909,-0.464022 4.460605,-0.797416 11.446788,-0.985946 3.842007,-0.10368 12.021623,-0.05792 15.947926,0.08922 5.575958,0.208962 8.665581,0.577215 8.665581,1.032853 0,0.03282 -4.897413,0.045 -18.083808,0.045 -13.941965,0 -18.083808,-0.01108 -18.083808,-0.04836 z"
       id="path4196"
       inkscape:connector-curvature="0" />
    <path
       style="opacity:0.98999999;fill:none;fill-opacity:1;stroke:none;stroke-width:1;stroke-miterlimit:1;stroke-dasharray:none;stroke-opacity:1"
       d="m 10.669836,16.221877 c 0,-0.0266 0.04829,-0.08634 0.107321,-0.132776 0.589909,-0.464022 4.460605,-0.797416 11.446788,-0.985946 3.842007,-0.10368 12.021623,-0.05792 15.947926,0.08922 5.575958,0.208962 8.665581,0.577215 8.665581,1.032853 0,0.03282 -4.897413,0.045 -18.083808,0.045 -13.941965,0 -18.083808,-0.01108 -18.083808,-0.04836 z"
       id="path4198"
       inkscape:connector-curvature="0" />
  </g>
</svg>
